# xmcd
#
# Track frame offsets:
#        150
#        21027
#        23272
#        45772
#        63202
#        71537
#        84757
#        90162
#        106130
#        115250
#        123862
#        138095
#        157325
#        171352
#        185627
#        207745
#        228247
#        235347
#        259845
#        261235
#
# Disc length: 3620 seconds
#
# Revision: 2
# Processed by: cddbd v1.5.1PL0 Copyright (c) Steve Scherf et al.
# Submitted via: ExactAudioCopy v0.95a5
#
DISCID=fc0e2214
DTITLE=Dr. Licks - Standing In The Shadows Of Motown [Disc 2]
DYEAR=1900
DGENRE=
TTITLE0=John Patitucci
TTITLE1=Gene Page
TTITLE2=Jimmy Haslip
TTITLE3=Bob Babbitt
TTITLE4=Robert White
TTITLE5=Willie Weeks
TTITLE6=Eddie Holland
TTITLE7=Dave Hungate
TTITLE8=Earl Van Dyke
TTITLE9=Francis Rocco Prestia
TTITLE10=Jake Bruce
TTITLE11=Kenny Aaronson
TTITLE12=Marcus Miller
TTITLE13=Nathan Watts
TTITLE14=Non-Motown Medley
TTITLE15=Basil Fearrington
TTITLE16=Smokey Robinson
TTITLE17=Anthony Jackson
TTITLE18=Brian Holland
TTITLE19=Stevie Wonder
EXTD=
EXTT0=
EXTT1=
EXTT2=
EXTT3=
EXTT4=
EXTT5=
EXTT6=
EXTT7=
EXTT8=
EXTT9=
EXTT10=
EXTT11=
EXTT12=
EXTT13=
EXTT14=
EXTT15=
EXTT16=
EXTT17=
EXTT18=
EXTT19=
PLAYORDER=
